<svg id="图层_1" data-name="图层 1" xmlns="http://www.w3.org/2000/svg" viewBox="0 0 512 512"><defs><style>.cls-1{fill:#ff5c28;}</style></defs><path class="cls-1" d="M256,0C114.62,0,0,114.61,0,256S114.62,512,256,512,512,397.38,512,256,397.38,0,256,0ZM403.4,159.42q-8.1,7.38-27.8,7.39H355l1.46,145.37q.28,14.77,6.22,23t20.71,8.26h11a94.71,94.71,0,0,1,3.47,26.06,129.3,129.3,0,0,1-.72,13.32A86.3,86.3,0,0,1,394.43,397q-11,.87-22.88,1.74t-21.72.87q-33.31,0-49.23-16.65t-15.93-45.61V166.81H230.81q0,38.81-3.91,80.21a587.34,587.34,0,0,1-13.47,81.38,340.94,340.94,0,0,1-26.93,74.43,96,96,0,0,1-18.82-2.18A139.91,139.91,0,0,1,147.4,395a147,147,0,0,1-18.24-7.67,66.55,66.55,0,0,1-15.06-10q20.85-35.62,30.55-71.82a411.87,411.87,0,0,0,12.74-73q2.7-32.62,3-65.73H103.09a85.39,85.39,0,0,1-2.17-15.06q-.44-7.81-.43-13.62t.43-13.6a91.51,91.51,0,0,1,2.17-15.36H407.75a52.83,52.83,0,0,1,2.89,12.89,125.59,125.59,0,0,1,.87,14.05Q411.51,152,403.4,159.42Z"/></svg>