<svg id="图层_1" data-name="图层 1" xmlns="http://www.w3.org/2000/svg" viewBox="0 0 512 512"><defs><style>.cls-1{fill:#ffc000;}</style></defs><path class="cls-1" d="M256,1C115.17,1,1,115.17,1,256S115.17,511,256,511,511,396.83,511,256,396.83,1,256,1ZM369.13,78l-5.53,30.28a3.84,3.84,0,0,1-3.78,3.13H321.6q-13.44,0-20.14,5.38t-9,18.79l-4.2,23.84a1.91,1.91,0,0,0,1.88,2.24h61.79a1.94,1.94,0,0,1,1.9,2.26L348.63,193a3.82,3.82,0,0,1-3.78,3.16H284.92a3.84,3.84,0,0,0-3.77,3.18l-6.69,37.95a1.9,1.9,0,0,0,1.89,1.66h61.79A1.91,1.91,0,0,1,340,241.2l-5.18,29.1a3.82,3.82,0,0,1-3.77,3.18H273.81v0h-4a.2.2,0,0,0-.11,0,1.94,1.94,0,0,0-1.76,1.25v0h0s0,0,0,0h0v0a.05.05,0,0,0,0,0s0,0,0,0,0,0,0,0a.54.54,0,0,1,0,.1h0v.05l-.07.37L249.87,376.83q-5.76,31.83-21.3,45.64t-50,13.82H144.76a1.92,1.92,0,0,1-1.89-2.26l5.54-30.26a3.82,3.82,0,0,1,3.77-3.15h27.87q13.42,0,20.14-5.57t9-18.6l17.9-101.33V275l0-.12v-.09a1.35,1.35,0,0,0-1.35-1.35H181.58a1.94,1.94,0,0,1-1.9-2.25l4.86-29.08a3.82,3.82,0,0,1,3.78-3.21h42.47a1.42,1.42,0,0,0,.29,0,2.88,2.88,0,0,0,2.65-1.76s0,0,0,0,0,0,0-.07h0c.42,0,6.83-38.67,6.83-38.67a1.91,1.91,0,0,0-1.88-2.26h-43.4a1.9,1.9,0,0,1-1.89-2.23l4.84-29.08a3.83,3.83,0,0,1,3.78-3.21H244a3.84,3.84,0,0,0,3.79-3.17l4-23.29q5.75-31.83,22.82-45.64t48.53-13.82h44.11A1.92,1.92,0,0,1,369.13,78Z"/></svg>