<svg id="图层_1" data-name="图层 1" xmlns="http://www.w3.org/2000/svg"    viewBox="126 126 256 256"><defs><style>.cls-1{fill:#FBFBFC;}.cls-2{fill:#FBFBFC;}</style></defs><path class="cls-1" d="M60.85,196,48,203.44l70.44,40.67,3.44,2-3.44,2L78.26,271.24v13.53L146,245.64v-.38Zm-17,10.38V306.51l13.65,7.88V227.52l3.44,2,40.21,23.22,11.5-6.63L43.86,206.38Zm18.24,29.1V316L146,267.55V250.94l-68.9,39.79-3.45,2V242.17L62.1,235.48Z"/><path class="cls-2" d="M198.15,299.5a97.13,97.13,0,0,1-16-1.25,55.1,55.1,0,0,1-12.85-3.61V278.11a78.07,78.07,0,0,0,13.2,4,65.62,65.62,0,0,0,13.88,1.53q9.72,0,14.31-1.81t4.58-8.19a9.77,9.77,0,0,0-1.94-6.39c-1.3-1.58-3.54-3-6.74-4.24A136.65,136.65,0,0,0,193,258.81q-14-3.9-19.72-9.73T167.59,233q0-12.36,9-19t26.25-6.66a95.18,95.18,0,0,1,15,1.11A65.35,65.35,0,0,1,229.12,211v16.53a66.61,66.61,0,0,0-23.75-4.31q-8.75,0-13.75,1.88t-5,7.84a8.16,8.16,0,0,0,1.81,5.56,15.32,15.32,0,0,0,6.18,3.75A127.49,127.49,0,0,0,206.9,246q11,2.91,16.94,6.94a22.3,22.3,0,0,1,8.27,9.17,28,28,0,0,1,2.29,11.53,22.8,22.8,0,0,1-8.89,18.75Q216.62,299.5,198.15,299.5Z"/><path class="cls-2" d="M281.76,299.5q-17.08,0-27.08-8.54t-10-25.9q0-15.7,8.4-24.94t25.07-9.23q15.27,0,23.4,8t8.13,20.9v11.94H262q1.51,7.92,7.29,10.84t16.32,2.91a61.4,61.4,0,0,0,10.76-1,49.68,49.68,0,0,0,9.38-2.5v13.33a43.73,43.73,0,0,1-10.7,3.13A80,80,0,0,1,281.76,299.5ZM262,260.19h31.25v-3.61q0-5.69-3.34-9t-11.25-3.26q-9.3,0-13,3.75T262,260.19Z"/><path class="cls-2" d="M322.73,298.11V232.28h17.36l.7,6.25a39.5,39.5,0,0,1,10.2-5.35,37,37,0,0,1,13-2.29q13,0,19,6.11t6,18.89v42.22H370.23V256.86q0-6.66-2.71-9.44t-10.07-2.78a21.35,21.35,0,0,0-8.68,1.94,24.19,24.19,0,0,0-7.29,4.86v46.67Z"/><path class="cls-2" d="M429.54,299.5a37.25,37.25,0,0,1-15.63-3.13,22.83,22.83,0,0,1-10.76-10.27q-3.9-7.16-3.89-19t4.3-19.86a30,30,0,0,1,11.53-12.22,31.12,31.12,0,0,1,15.84-4.17q10.83,0,18.47,5V204.5h18.75v93.61H452L450.93,292a30.23,30.23,0,0,1-9.38,5.62A34.62,34.62,0,0,1,429.54,299.5Zm5.14-13.75a20,20,0,0,0,14.72-6v-30a19.94,19.94,0,0,0-13.61-5.14q-17.51,0-17.5,22.5,0,10.56,4.3,14.58T434.68,285.75Z"/></svg>