<?xml version="1.0" encoding="UTF-8"?>
<svg id="_图层_1" data-name="图层 1" xmlns="http://www.w3.org/2000/svg" viewBox="0 0 433 120">
  <defs>
    <style>
      .cls-1 {
        fill: #ffffff;
      }

      .cls-2 {
        fill: #ffffff;
      }
    </style>
  </defs>
  <path class="cls-1" d="M17.35,0L4.45,7.44,74.89,48.11l3.44,1.99-3.44,1.99-40.13,23.15v13.52S102.52,49.64,102.52,49.64v-.38S17.35,0,17.35,0ZM.36,10.38V110.51s13.64,7.88,13.64,7.88V35.5s0-3.98,0-3.98l3.44,1.99,40.21,23.22,11.5-6.63L.36,10.38h0Zm18.24,29.09V120s83.91-48.45,83.91-48.45v-16.61S33.61,94.73,33.61,94.73l-3.45,1.99v-3.98s.02-46.57,.02-46.57l-11.58-6.69h0Z"/>
  <g>
    <path class="cls-2" d="M162.65,103.5c-5.74,0-11.09-.42-16.04-1.25-4.95-.83-9.24-2.04-12.85-3.61v-16.53c4.07,1.67,8.47,3.01,13.19,4.03,4.72,1.02,9.35,1.53,13.89,1.53,6.48,0,11.25-.6,14.31-1.81,3.06-1.2,4.58-3.93,4.58-8.19,0-2.68-.65-4.81-1.94-6.39-1.3-1.57-3.54-2.99-6.74-4.24s-7.71-2.66-13.54-4.24c-9.35-2.59-15.93-5.83-19.72-9.72-3.8-3.89-5.69-9.26-5.69-16.11,0-8.24,3.01-14.58,9.03-19.03,6.02-4.44,14.77-6.67,26.25-6.67,5.37,0,10.37,.37,15,1.11,4.63,.74,8.38,1.62,11.25,2.64V31.56c-7.59-2.87-15.51-4.31-23.75-4.31-5.83,0-10.42,.62-13.75,1.88-3.33,1.25-5,3.87-5,7.85,0,2.32,.6,4.17,1.81,5.56,1.2,1.39,3.26,2.64,6.18,3.75,2.92,1.11,7.01,2.36,12.29,3.75,7.31,1.94,12.96,4.26,16.94,6.94,3.98,2.69,6.74,5.74,8.26,9.17,1.53,3.43,2.29,7.27,2.29,11.53,0,7.78-2.96,14.03-8.89,18.75-5.93,4.72-15.05,7.08-27.36,7.08Z"/>
    <path class="cls-2" d="M246.26,103.5c-11.39,0-20.42-2.85-27.08-8.54-6.67-5.69-10-14.33-10-25.9,0-10.46,2.8-18.77,8.4-24.93,5.6-6.16,13.96-9.24,25.07-9.24,10.18,0,17.99,2.66,23.4,7.99,5.42,5.33,8.13,12.29,8.13,20.9v11.94h-47.64c1.02,5.28,3.45,8.89,7.29,10.83,3.84,1.94,9.28,2.92,16.32,2.92,3.52,0,7.1-.32,10.76-.97,3.66-.65,6.78-1.48,9.38-2.5v13.33c-3.06,1.39-6.62,2.43-10.69,3.13-4.08,.69-8.52,1.04-13.33,1.04Zm-19.72-39.31h31.25v-3.61c0-3.8-1.11-6.78-3.33-8.96-2.22-2.17-5.97-3.26-11.25-3.26-6.2,0-10.53,1.25-12.99,3.75-2.45,2.5-3.68,6.53-3.68,12.08Z"/>
    <path class="cls-2" d="M287.23,102.11V36.28h17.36l.69,6.25c2.68-2.04,6.09-3.82,10.21-5.35,4.12-1.53,8.45-2.29,12.99-2.29,8.7,0,15.05,2.04,19.03,6.11,3.98,4.08,5.97,10.37,5.97,18.89v42.22h-18.75V60.86c0-4.44-.9-7.59-2.71-9.44-1.81-1.85-5.16-2.78-10.07-2.78-2.87,0-5.76,.65-8.68,1.94-2.92,1.3-5.35,2.92-7.29,4.86v46.67h-18.75Z"/>
    <path class="cls-2" d="M394.04,103.5c-5.83,0-11.04-1.04-15.63-3.13-4.58-2.08-8.17-5.51-10.76-10.28-2.59-4.77-3.89-11.09-3.89-18.96s1.43-14.49,4.31-19.86c2.87-5.37,6.71-9.44,11.53-12.22,4.81-2.78,10.09-4.17,15.83-4.17,7.22,0,13.38,1.67,18.47,5V8.5h18.75V102.11h-16.11l-1.11-6.11c-2.87,2.5-6,4.37-9.38,5.62-3.38,1.25-7.38,1.88-12.01,1.88Zm5.14-13.75c5.83,0,10.74-1.99,14.72-5.97v-30c-3.89-3.42-8.43-5.14-13.61-5.14-11.67,0-17.5,7.5-17.5,22.5,0,7.04,1.43,11.9,4.31,14.58,2.87,2.69,6.9,4.03,12.08,4.03Z"/>
  </g>
</svg>