<svg id="图层_1" data-name="图层 1" xmlns="http://www.w3.org/2000/svg" viewBox="0 0 500 139"><defs><style>.cls-1{fill:#EFEFEF;}</style></defs><path class="cls-1" d="M53.77.09,36.59,4.69l68.69,68.69,3.35,3.36L104.05,78,50.6,92.28l-4.19,15.6,90.27-24.19.12-.44ZM31,6.82,0,122.33l13.31,13.31L38.94,40l1.23-4.59,3.35,3.37L82.73,78l15.32-4.1L31,6.82ZM43,46l-24.9,92.89L129.9,109,135,89.8l-91.8,24.6-4.59,1.23L39.89,111,54.3,57.32,43,46Z"/><path class="cls-1" d="M189.87,124.06a112,112,0,0,1-18.43-1.43,63.44,63.44,0,0,1-14.76-4.15v-19a89.85,89.85,0,0,0,15.16,4.63,75.47,75.47,0,0,0,15.95,1.75q11.18,0,16.44-2.07t5.26-9.41a11.19,11.19,0,0,0-2.23-7.34q-2.23-2.72-7.74-4.87A160.46,160.46,0,0,0,184,77.32q-16.12-4.47-22.66-11.17t-6.54-18.51q0-14.19,10.37-21.85t30.15-7.66a109.31,109.31,0,0,1,17.23,1.28,75,75,0,0,1,12.92,3v19a76.63,76.63,0,0,0-27.28-4.94q-10,0-15.79,2.15t-5.74,9A9.44,9.44,0,0,0,178.7,54c1.38,1.59,3.75,3,7.1,4.3a147.07,147.07,0,0,0,14.12,4.31q12.6,3.35,19.46,8t9.49,10.53a32.07,32.07,0,0,1,2.64,13.24q0,13.39-10.21,21.53T189.87,124.06Z"/><path class="cls-1" d="M285.91,124.06q-19.64,0-31.11-9.81T243.31,84.5q0-18,9.65-28.64t28.8-10.61q17.55,0,26.88,9.17t9.33,24V92.15H263.25q1.75,9.1,8.38,12.45T290.37,108a70.41,70.41,0,0,0,12.37-1.12A56.6,56.6,0,0,0,313.51,104v15.31a49.5,49.5,0,0,1-12.29,3.59A91,91,0,0,1,285.91,124.06ZM263.25,78.91h35.9V74.76q0-6.54-3.83-10.29T282.4,60.73q-10.69,0-14.92,4.3T263.25,78.91Z"/><path class="cls-1" d="M333,122.47V46.85h19.94l.8,7.18a45.64,45.64,0,0,1,11.72-6.15,42.68,42.68,0,0,1,14.92-2.63q15,0,21.86,7T409.07,74v48.5H387.53V75.08q0-7.65-3.11-10.84T372.85,61a24.38,24.38,0,0,0-10,2.24,27.46,27.46,0,0,0-8.37,5.58v53.61Z"/><path class="cls-1" d="M455.65,124.06a43,43,0,0,1-17.95-3.59,26.26,26.26,0,0,1-12.36-11.8q-4.47-8.22-4.47-21.78t4.95-22.81a34.46,34.46,0,0,1,13.24-14,35.76,35.76,0,0,1,18.19-4.79q12.44,0,21.21,5.74V14.94H500V122.47H481.49l-1.27-7a34.76,34.76,0,0,1-10.77,6.46A39.92,39.92,0,0,1,455.65,124.06Zm5.9-15.79a23,23,0,0,0,16.91-6.86V67A22.89,22.89,0,0,0,462.83,61q-20.1,0-20.1,25.85,0,12.12,4.94,16.75T461.55,108.27Z" /></svg>